<svg width="144" height="45" viewBox="0 0 144 45" fill="none" xmlns="http://www.w3.org/2000/svg">
<path d="M39.1392 17.6621H33.6548V21.0684H36.4829C37.6704 21.084 38.5975 21.3887 39.2642 21.9824C39.9308 22.5762 40.2642 23.3835 40.2642 24.4043C40.2642 25.4303 39.9282 26.248 39.2563 26.8574C38.5845 27.4668 37.6678 27.7819 36.5063 27.8027H32.147V16.4277H39.1392V17.6621ZM33.6548 22.3027V26.5762H36.397C37.1418 26.5762 37.7199 26.3783 38.1313 25.9824C38.548 25.5866 38.7563 25.0553 38.7563 24.3887C38.7563 23.748 38.5558 23.2428 38.1548 22.873C37.759 22.5033 37.1938 22.3132 36.4595 22.3027H33.6548ZM47.5376 19.3496H48.9829V27.8027H47.5376V21.6387L43.6392 27.8027H42.1938V19.3496H43.6392V25.5215L47.5376 19.3496ZM50.9204 23.498C50.9204 22.6699 51.0819 21.9251 51.4048 21.2637C51.7329 20.6022 52.186 20.0918 52.7642 19.7324C53.3475 19.373 54.0116 19.1934 54.7563 19.1934C55.9074 19.1934 56.8371 19.5918 57.5454 20.3887C58.259 21.1855 58.6157 22.2454 58.6157 23.5684V23.6699C58.6157 24.4928 58.4569 25.2324 58.1392 25.8887C57.8267 26.5397 57.3761 27.0475 56.7876 27.4121C56.2043 27.7767 55.5324 27.959 54.772 27.959C53.6261 27.959 52.6965 27.5605 51.9829 26.7637C51.2746 25.9668 50.9204 24.9121 50.9204 23.5996V23.498ZM52.3735 23.6699C52.3735 24.6074 52.5897 25.36 53.022 25.9277C53.4595 26.4954 54.0428 26.7793 54.772 26.7793C55.5063 26.7793 56.0897 26.4928 56.522 25.9199C56.9543 25.3418 57.1704 24.5345 57.1704 23.498C57.1704 22.571 56.9491 21.821 56.5063 21.248C56.0688 20.6699 55.4855 20.3809 54.7563 20.3809C54.0428 20.3809 53.4673 20.6647 53.0298 21.2324C52.5923 21.8001 52.3735 22.6126 52.3735 23.6699ZM65.8892 20.5449H61.9907V27.8027H60.5376V19.3496H65.8892V20.5449ZM74.2876 23.6699C74.2876 24.9564 73.9933 25.9928 73.4048 26.7793C72.8162 27.5658 72.0194 27.959 71.0142 27.959C69.9881 27.959 69.1808 27.6335 68.5923 26.9824V31.0527H67.147V19.3496H68.4673L68.5376 20.2871C69.1261 19.5579 69.9438 19.1934 70.9907 19.1934C72.0063 19.1934 72.8084 19.5762 73.397 20.3418C73.9907 21.1074 74.2876 22.1725 74.2876 23.5371V23.6699ZM72.8423 23.5059C72.8423 22.5527 72.6392 21.8001 72.2329 21.248C71.8267 20.696 71.2694 20.4199 70.561 20.4199C69.686 20.4199 69.0298 20.8079 68.5923 21.584V25.623C69.0246 26.3939 69.686 26.7793 70.5767 26.7793C71.2694 26.7793 71.8188 26.5059 72.2251 25.959C72.6366 25.4069 72.8423 24.5892 72.8423 23.5059ZM81.3501 27.8027C81.2668 27.6361 81.1991 27.3392 81.147 26.9121C80.4751 27.61 79.673 27.959 78.7407 27.959C77.9074 27.959 77.2225 27.7246 76.686 27.2559C76.1548 26.7819 75.8892 26.1829 75.8892 25.459C75.8892 24.5788 76.2225 23.8965 76.8892 23.4121C77.561 22.9225 78.5037 22.6777 79.7173 22.6777H81.1235V22.0137C81.1235 21.5085 80.9725 21.1074 80.6704 20.8105C80.3683 20.5085 79.923 20.3574 79.3345 20.3574C78.8188 20.3574 78.3866 20.4876 78.0376 20.748C77.6886 21.0085 77.5142 21.3236 77.5142 21.6934H76.061C76.061 21.2715 76.2095 20.8652 76.5063 20.4746C76.8084 20.0788 77.2147 19.7663 77.7251 19.5371C78.2407 19.3079 78.8058 19.1934 79.4204 19.1934C80.3944 19.1934 81.1574 19.4382 81.7095 19.9277C82.2616 20.4121 82.548 21.0814 82.5688 21.9355V25.8262C82.5688 26.6022 82.6678 27.2194 82.8657 27.6777V27.8027H81.3501ZM78.9517 26.7012C79.4048 26.7012 79.8345 26.584 80.2407 26.3496C80.647 26.1152 80.9412 25.8105 81.1235 25.4355V23.7012H79.9907C78.2199 23.7012 77.3345 24.2194 77.3345 25.2559C77.3345 25.709 77.4855 26.0632 77.7876 26.3184C78.0897 26.5736 78.4777 26.7012 78.9517 26.7012ZM84.522 23.7324C84.522 22.321 84.7954 21.2116 85.3423 20.4043C85.8892 19.597 86.6392 19.1934 87.5923 19.1934C88.035 19.1934 88.423 19.2689 88.7563 19.4199V15.8027H90.2017V19.4668C90.5662 19.2845 90.9933 19.1934 91.4829 19.1934C92.4412 19.1934 93.1938 19.597 93.7407 20.4043C94.2876 21.2116 94.561 22.3757 94.561 23.8965C94.561 25.1413 94.2876 26.1309 93.7407 26.8652C93.1991 27.5996 92.4517 27.9668 91.4985 27.9668C90.9933 27.9668 90.561 27.8835 90.2017 27.7168V31.0527H88.7563V27.7402C88.4126 27.8913 88.0194 27.9668 87.5767 27.9668C86.6287 27.9668 85.8813 27.5996 85.3345 26.8652C84.7928 26.1309 84.522 25.1257 84.522 23.8496V23.7324ZM93.1157 23.7324C93.1157 22.6699 92.9334 21.847 92.5688 21.2637C92.2043 20.6751 91.7017 20.3809 91.061 20.3809C90.7329 20.3809 90.4465 20.4329 90.2017 20.5371V26.6543C90.436 26.7428 90.7277 26.7871 91.0767 26.7871C91.7225 26.7871 92.2225 26.5371 92.5767 26.0371C92.936 25.5371 93.1157 24.7689 93.1157 23.7324ZM85.9673 23.8965C85.9673 24.8444 86.1366 25.5632 86.4751 26.0527C86.8136 26.5423 87.3006 26.7871 87.936 26.7871C88.2381 26.7871 88.5116 26.7402 88.7563 26.6465V20.5137C88.5376 20.4251 88.2694 20.3809 87.9517 20.3809C87.3162 20.3809 86.8267 20.6647 86.4829 21.2324C86.1392 21.8001 85.9673 22.6882 85.9673 23.8965ZM101.913 19.3496H103.358V27.8027H101.913V21.6387L98.0142 27.8027H96.5688V19.3496H98.0142V25.5215L101.913 19.3496ZM112.139 19.3496V27.8027H110.686V24.5137H108.506L106.514 27.8027H104.952L107.077 24.2949C106.535 24.097 106.118 23.7923 105.827 23.3809C105.54 22.9642 105.397 22.4798 105.397 21.9277C105.397 21.1569 105.686 20.5371 106.264 20.0684C106.842 19.5944 107.616 19.3548 108.584 19.3496H112.139ZM106.85 21.9434C106.85 22.3548 106.991 22.6882 107.272 22.9434C107.553 23.1934 107.926 23.321 108.389 23.3262H110.686V20.5215H108.608C108.071 20.5215 107.644 20.6543 107.327 20.9199C107.009 21.1803 106.85 21.5215 106.85 21.9434Z" fill="white"/>
<rect x="1.12354" y="1.30273" width="142" height="43" rx="21.5" stroke="white"/>
</svg>
