<svg width="299" height="59" viewBox="0 0 299 59" fill="none" xmlns="http://www.w3.org/2000/svg">
<g filter="url(#filter0_d_10099_116)">
<circle cx="29.6235" cy="25.8027" r="25" fill="url(#paint0_linear_10099_116)"/>
<circle cx="109.624" cy="25.8027" r="25" fill="url(#paint1_linear_10099_116)"/>
<circle cx="189.624" cy="25.8027" r="25" fill="url(#paint2_linear_10099_116)"/>
<circle cx="269.624" cy="25.8027" r="25" fill="url(#paint3_linear_10099_116)"/>
<path d="M119.681 20.7476C119.562 20.3037 119.328 19.8989 119.002 19.5738C118.677 19.2487 118.273 19.0146 117.829 18.8951C116.194 18.4526 109.624 18.4526 109.624 18.4526C109.624 18.4526 103.054 18.4526 101.419 18.8951C100.975 19.0146 100.57 19.2487 100.245 19.5738C99.9196 19.8989 99.6856 20.3037 99.5661 20.7476C99.2608 22.4151 99.1127 24.1075 99.1236 25.8026C99.1127 27.4978 99.2608 29.1902 99.5661 30.8576C99.6856 31.3016 99.9196 31.7064 100.245 32.0315C100.57 32.3566 100.975 32.5906 101.419 32.7101C103.054 33.1526 109.624 33.1526 109.624 33.1526C109.624 33.1526 116.194 33.1526 117.829 32.7101C118.273 32.5906 118.677 32.3566 119.002 32.0315C119.328 31.7064 119.562 31.3016 119.681 30.8576C119.986 29.1902 120.135 27.4978 120.124 25.8026C120.135 24.1075 119.986 22.4151 119.681 20.7476ZM107.524 28.9526V22.6526L112.976 25.8026L107.524 28.9526Z" fill="white"/>
<g clip-path="url(#clip0_10099_116)">
<path fill-rule="evenodd" clip-rule="evenodd" d="M38.986 28.5604C38.986 28.5604 40.9264 30.4768 41.4064 31.3636C41.4158 31.3764 41.4231 31.3905 41.428 31.4056C41.6236 31.7332 41.6716 31.99 41.5756 32.1796C41.4136 32.4928 40.8652 32.65 40.6792 32.6632H37.2496C37.0108 32.6632 36.514 32.6008 35.9092 32.1832C35.4472 31.8604 34.9876 31.3288 34.5424 30.8092C33.8776 30.0376 33.3028 29.368 32.7208 29.368C32.6473 29.3678 32.5743 29.38 32.5048 29.404C32.0644 29.5432 31.5052 30.1708 31.5052 31.8424C31.5052 32.3656 31.0924 32.6632 30.8032 32.6632H29.2324C28.6972 32.6632 25.9108 32.476 23.44 29.8708C20.4124 26.6812 17.6932 20.2828 17.6668 20.2264C17.4976 19.8124 17.8528 19.5868 18.2368 19.5868H21.7C22.1644 19.5868 22.3156 19.8676 22.4212 20.1196C22.5436 20.4088 22.9972 21.5656 23.7412 22.8652C24.946 24.9796 25.6864 25.84 26.278 25.84C26.3892 25.8403 26.4985 25.8113 26.5948 25.756C27.3676 25.3312 27.2236 22.5712 27.1876 22.0024C27.1876 21.892 27.1864 20.77 26.7904 20.2276C26.5072 19.8388 26.0248 19.6876 25.7332 19.6324C25.8112 19.5196 25.9768 19.3468 26.1892 19.2448C26.7184 18.9808 27.6748 18.9424 28.624 18.9424H29.1508C30.1804 18.9568 30.4468 19.0228 30.8212 19.1176C31.5748 19.2976 31.5892 19.786 31.5232 21.4492C31.504 21.9244 31.4836 22.4596 31.4836 23.0896C31.4836 23.224 31.4776 23.374 31.4776 23.5264C31.4548 24.3796 31.4248 25.3408 32.0272 25.7356C32.1054 25.7843 32.1956 25.81 32.2876 25.81C32.4964 25.81 33.1216 25.81 34.8172 22.9C35.5612 21.6148 36.1372 20.0992 36.1768 19.9852C36.2104 19.9216 36.3112 19.7428 36.4336 19.6708C36.5207 19.6245 36.6182 19.6013 36.7168 19.6036H40.7908C41.2348 19.6036 41.536 19.6708 41.5948 19.8388C41.6932 20.1112 41.5756 20.9428 39.7156 23.458C39.4024 23.8768 39.1276 24.2392 38.8864 24.556C37.2004 26.7688 37.2004 26.8804 38.986 28.5604Z" fill="white"/>
</g>
<path d="M191.021 34.7999V26.6039H193.786L194.197 23.3949H191.021V21.3509C191.021 20.4249 191.279 19.7909 192.608 19.7909H194.292V16.9299C193.472 16.8421 192.649 16.7997 191.825 16.8029C189.381 16.8029 187.703 18.2949 187.703 21.0339V23.3889H184.956V26.5979H187.709V34.7999H191.021Z" fill="white"/>
<g clip-path="url(#clip1_10099_116)">
<path d="M274.124 13.8027H265.124C260.982 13.8027 257.624 17.1612 257.624 21.3027V30.3027C257.624 34.4442 260.982 37.8027 265.124 37.8027H274.124C278.265 37.8027 281.624 34.4442 281.624 30.3027V21.3027C281.624 17.1612 278.265 13.8027 274.124 13.8027ZM279.374 30.3027C279.374 33.1977 277.019 35.5527 274.124 35.5527H265.124C262.229 35.5527 259.874 33.1977 259.874 30.3027V21.3027C259.874 18.4077 262.229 16.0527 265.124 16.0527H274.124C277.019 16.0527 279.374 18.4077 279.374 21.3027V30.3027Z" fill="white"/>
<path d="M269.624 19.8027C266.31 19.8027 263.624 22.4892 263.624 25.8027C263.624 29.1162 266.31 31.8027 269.624 31.8027C272.937 31.8027 275.624 29.1162 275.624 25.8027C275.624 22.4892 272.937 19.8027 269.624 19.8027ZM269.624 29.5527C267.557 29.5527 265.874 27.8697 265.874 25.8027C265.874 23.7342 267.557 22.0527 269.624 22.0527C271.691 22.0527 273.374 23.7342 273.374 25.8027C273.374 27.8697 271.691 29.5527 269.624 29.5527Z" fill="white"/>
<path d="M276.071 20.1527C276.513 20.1527 276.871 19.7948 276.871 19.3532C276.871 18.9117 276.513 18.5537 276.071 18.5537C275.63 18.5537 275.272 18.9117 275.272 19.3532C275.272 19.7948 275.63 20.1527 276.071 20.1527Z" fill="white"/>
</g>
</g>
<defs>
<filter id="filter0_d_10099_116" x="0.623535" y="0.802734" width="298" height="58" filterUnits="userSpaceOnUse" color-interpolation-filters="sRGB">
<feFlood flood-opacity="0" result="BackgroundImageFix"/>
<feColorMatrix in="SourceAlpha" type="matrix" values="0 0 0 0 0 0 0 0 0 0 0 0 0 0 0 0 0 0 127 0" result="hardAlpha"/>
<feOffset dy="4"/>
<feGaussianBlur stdDeviation="2"/>
<feComposite in2="hardAlpha" operator="out"/>
<feColorMatrix type="matrix" values="0 0 0 0 0 0 0 0 0 0 0 0 0 0 0 0 0 0 0.25 0"/>
<feBlend mode="normal" in2="BackgroundImageFix" result="effect1_dropShadow_10099_116"/>
<feBlend mode="normal" in="SourceGraphic" in2="effect1_dropShadow_10099_116" result="shape"/>
</filter>
<linearGradient id="paint0_linear_10099_116" x1="9.73403" y1="0.802729" x2="52.8622" y2="4.01739" gradientUnits="userSpaceOnUse">
<stop stop-color="#C89AFC"/>
<stop offset="1" stop-color="#7C6AFA"/>
</linearGradient>
<linearGradient id="paint1_linear_10099_116" x1="89.734" y1="0.802729" x2="132.862" y2="4.01739" gradientUnits="userSpaceOnUse">
<stop stop-color="#C89AFC"/>
<stop offset="1" stop-color="#7C6AFA"/>
</linearGradient>
<linearGradient id="paint2_linear_10099_116" x1="169.734" y1="0.802729" x2="212.862" y2="4.01739" gradientUnits="userSpaceOnUse">
<stop stop-color="#C89AFC"/>
<stop offset="1" stop-color="#7C6AFA"/>
</linearGradient>
<linearGradient id="paint3_linear_10099_116" x1="249.734" y1="0.802729" x2="292.862" y2="4.01739" gradientUnits="userSpaceOnUse">
<stop stop-color="#C89AFC"/>
<stop offset="1" stop-color="#7C6AFA"/>
</linearGradient>
<clipPath id="clip0_10099_116">
<rect x="17.6235" y="13.8027" width="24" height="24" fill="white"/>
</clipPath>
<clipPath id="clip1_10099_116">
<rect width="24" height="24" fill="white" transform="translate(257.624 13.8027)"/>
</clipPath>
</defs>
</svg>
